Coordinates
version=1
nRows=16
nColumns=36
inDegrees=yes

Units are S.I. units (second, meters, Newtons, ...)
If the header above contains a line with 'inDegrees', this indicates whether rotational values are in degrees (yes) or radians (no).

endheader
time	pelvis_tilt	pelvis_list	pelvis_rotation	pelvis_tx	pelvis_ty	pelvis_tz	hip_flexion_r	hip_adduction_r	hip_rotation_r	knee_angle_r	knee_angle_r_beta	ankle_angle_r	subtalar_angle_r	mtp_angle_r	hip_flexion_l	hip_adduction_l	hip_rotation_l	knee_angle_l	knee_angle_l_beta	ankle_angle_l	subtalar_angle_l	mtp_angle_l	lumbar_extension	lumbar_bending	lumbar_rotation	arm_flex_r	arm_add_r	arm_rot_r	elbow_flex_r	pro_sup_r	arm_flex_l	arm_add_l	arm_rot_l	elbow_flex_l	pro_sup_l
      1.46000000	    -17.50129571	      4.31728536	     -4.67890395	     -0.34248611	      0.69384313	     -0.56887464	     77.90832419	      0.67909362	     10.89353990	     89.89802154	      1.56901647	     25.45201543	    -19.09735402	     -7.50062336	     78.85389560	     -6.64444608	     -2.14080673	     87.98447488	      1.53561878	     23.90664310	    -12.36497779	     -7.50062336	    -27.44209632	     -0.73376375	      5.73951307	      7.84964814	    -33.62659382	    -37.78001677	    125.25607255	     95.09040908	    155.70109037	   -173.51547223	    147.89224587	    137.34915311	    108.68111608
      1.47000000	    -17.88074973	      4.28853941	     -4.67899629	     -0.33935432	      0.68588698	     -0.56766332	     78.98488377	      1.08685124	     11.07632371	     91.57447994	      1.59827619	     26.22791292	    -19.06765031	     -7.50060703	     80.27658004	     -7.06878167	     -1.97879349	     89.86251295	      1.56839673	     24.21820080	    -12.00774463	     -7.50060703	    -27.75889821	     -0.67325659	      5.69348522	      7.55462901	    -28.19361859	    -35.34495941	    124.84957132	     95.54664331	    159.82757908	   -174.69147179	    152.89172736	    131.44321114	    108.10071565
      1.48000000	    -18.06478289	      4.36160074	     -4.86866306	     -0.33620564	      0.67889537	     -0.56590180	     79.85409878	      1.59662045	     11.28798451	     93.10680220	      1.62502025	     26.74264094	    -19.27098938	     -7.50060218	     81.33326529	     -7.64788667	     -1.98435137	     91.57821135	      1.59834131	     24.37872333	    -11.87718993	     -7.50060218	    -28.29786136	     -0.79492543	      5.27455034	      8.03344721	    -22.86185215	    -32.58186689	    124.19949113	     95.76387961	    163.48792141	   -175.54722986	    156.38160823	    126.02446791	    107.72009996
      1.49000000	    -18.49244478	      4.17589640	     -5.04694526	     -0.33283289	      0.67212361	     -0.56428087	     80.88511583	      2.07516714	     11.05966951	     94.49652391	      1.64927547	     27.52354305	    -18.92178100	     -7.50056856	     82.56165873	     -8.30858751	     -1.75108014	     93.20226222	      1.62668635	     25.39141961	    -10.87043303	     -7.50056856	    -28.32349643	     -0.63464188	      6.40733042	      6.63706172	    -18.67726293	    -31.45436888	    123.86121355	     97.50020486	    168.08383166	   -175.61600572	    161.78176254	    120.24939706	    107.23957928
      1.50000000	    -18.79376255	      3.94528490	     -5.21845956	     -0.32965195	      0.66604554	     -0.56309146	     81.71939427	      2.50121726	     10.82148950	     95.75356236	      1.67121493	     27.84792802	    -19.05547774	     -7.50055882	     83.52116107	     -8.84896661	     -1.56371838	     94.61438619	      1.65133256	     25.95452207	    -11.11104727	     -7.50055882	    -28.45129423	     -0.46103287	      5.86922362	      7.27511165	    -14.80910615	    -28.03899839	    122.54712032	     98.09146657	    171.38680346	   -175.90769447	    165.18289693	    116.15607203	    107.09186465
      1.51000000	    -18.90923058	      3.61552311	     -5.29772260	     -0.32654093	      0.66087091	     -0.56242082	     82.19712973	      2.72496294	     10.43748329	     96.81457851	      1.68973316	     28.30076517	    -19.16451387	     -7.50055312	     84.08957206	     -9.20963690	     -1.31250401	     95.76207939	      1.67136358	     26.75307082	    -11.43850077	     -7.50055312	    -28.73726000	     -0.13817742	      5.20550098	      8.04412845	    -11.57590412	    -24.72732334	    121.47186858	     98.52208885	    174.68323290	   -175.85009332	    168.44256630	    113.01383808	    107.09325561
      1.52000000	    -18.93375066	      3.27925486	     -5.32393689	     -0.32346966	      0.65638999	     -0.56214321	     82.46279266	      2.78202198	     10.00274806	     97.71789829	      1.70549906	     28.90939546	    -19.14496952	     -7.50054643	     84.36795376	     -9.36209039	     -0.97204591	     96.70170302	      1.68776311	     27.82563288	    -11.66331458	     -7.50054643	    -29.01468559	      0.21544657	      4.43497065	      8.95981972	     -9.16463158	    -21.17156879	    120.46227346	     99.07269867	    177.93078484	   -175.47222149	    171.77420071	    110.93441161	    107.29607164
      1.53000000	    -18.82816331	      2.98004942	     -5.43716503	     -0.32039210	      0.65245261	     -0.56188292	     82.54078775	      2.87584168	      9.63441008	     98.54434821	      1.71992334	     29.73116574	    -18.81309187	     -7.50053465	     84.34963694	     -9.46599467	     -0.54511249	     97.53303172	      1.70227253	     29.22085174	    -11.46446238	     -7.50053465	    -29.31487598	      0.49614923	      1.81266436	     11.61826292	     -6.91917836	    -15.48206024	    118.26015525	     99.98795392	    179.42646364	   -174.83038435	    173.05601228	    111.59765479	    107.69498254
      1.54000000	    -18.58971486	      2.63868714	     -5.55245829	     -0.31726547	      0.64920607	     -0.56187736	     82.39565379	      2.98256502	      9.27385768	     99.29067507	      1.73294920	     30.38978525	    -18.64668550	     -7.50052579	     84.14405312	     -9.40712270	      0.07549100	     98.29834125	      1.71562970	     30.36098932	    -11.49524428	     -7.50052579	    -29.64914485	      0.82113576	     -2.07698525	     15.48488106	     -4.76670072	     -8.63459742	    115.16671413	    100.63195603	    179.72266986	   -173.69830136	    173.08799631	    114.74649657	    108.01558549
      1.55000000	    -18.31560731	      2.36329217	     -5.68234712	     -0.31401746	      0.64715489	     -0.56200591	     82.08285607	      3.08042669	      9.02823110	     99.84703563	      1.74265952	     31.04088192	    -18.39472677	     -7.50051599	     83.82707593	     -9.24000961	      0.70059824	     98.91808268	      1.72644623	     31.15285105	    -11.52172386	     -7.50051599	    -29.99038281	      1.17609077	     -6.41464972	     19.95870472	     -2.44750603	     -1.76964699	    111.94916405	    101.24566991	    179.81249395	   -171.97208702	    172.14006172	    118.96550168	    108.20248509
      1.56000000	    -18.25562900	      2.11881167	     -5.71204862	     -0.31062725	      0.64565637	     -0.56252747	     81.88248260	      3.03808131	      8.74685398	    100.23691317	      1.74946417	     31.59867709	    -18.19693442	     -7.50050742	     83.77955667	     -8.87205328	      1.33598712	     99.48524376	      1.73634506	     31.51298988	    -11.74624888	     -7.50050742	    -29.95051830	      1.70305015	    -10.68321317	     24.67337346	     -0.14536643	      4.52349442	    108.92215897	    101.70557768	    179.85879755	   -169.66133951	    171.06337474	    123.97652835	    108.37083770
      1.57000000	    -18.27779411	      2.03506225	     -5.72602817	     -0.30743798	      0.64455544	     -0.56299447	     81.76481702	      2.97455446	      8.63495500	    100.55510056	      1.75501758	     32.11180610	    -18.02822125	     -7.50049794	     83.80429850	     -8.44852769	      1.74062272	     99.95965782	      1.74462515	     31.62085435	    -12.22214380	     -7.50049794	    -29.48243822	      2.32097808	    -15.19650338	     29.83227311	      2.62041093	     10.39686619	    105.66167938	    102.11523783	    179.88430817	   -166.75913462	    168.68321025	    129.13758371	    108.36184228
      1.58000000	    -18.40317290	      2.02394787	     -5.74095610	     -0.30444990	      0.64397602	     -0.56322467	     81.69064830	      2.97338025	      8.62520260	    100.74542724	      1.75833941	     32.55468580	    -18.10166822	     -7.50048830	     83.86376028	     -8.03936300	      2.04955848	    100.27295733	      1.75009326	     31.56196705	    -12.82066269	     -7.50048830	    -28.65917187	      3.02366298	    -19.69638316	     35.18771985	      5.84502944	     15.51190909	    102.39048523	    102.46471310	    179.90084229	   -163.08427878	    165.22182407	    134.30996713	    108.22183896
      1.59000000	    -18.59249384	      2.01891965	     -5.83437941	     -0.30148795	      0.64455903	     -0.56313392	     81.51249493	      3.09587669	      8.63468787	    100.65808413	      1.75681499	     32.90739908	    -18.44350934	     -7.50047933	     83.79109877	     -7.74018346	      2.37276162	    100.34617536	      1.75137115	     31.39667167	    -13.27455888	     -7.50047933	    -27.72505380	      3.86394471	    -23.87653806	     40.56963812	      9.44465076	     19.75934298	     99.38808902	    102.76610611	    179.90954360	   -158.30586206	    160.66335942	    139.17953967	    107.93464351
      1.60000000	    -18.86329320	      2.03388184	     -5.94397626	     -0.29855415	      0.64613442	     -0.56289251	     81.26563031	      3.27882539	      8.66369865	    100.33634543	      1.75119959	     33.15261481	    -18.83627838	     -7.50047250	     83.65015260	     -7.51836047	      2.67713542	    100.20786669	      1.74895721	     31.15794095	    -13.40981179	     -7.50047250	    -26.70425539	      4.78965568	    -27.57560304	     45.90702702	     13.19602457	     23.00716599	     96.84699659	    103.00365051	    179.91249648	   -152.52156765	    155.28481906	    143.65557320	    107.56469916
      1.61000000	    -18.97527893	      2.18104412	     -6.13917690	     -0.29586258	      0.64878542	     -0.56239489	     80.81768996	      3.49851633	      8.82594766	     99.86545362	      1.74298097	     33.21581374	    -19.15877645	     -7.50046370	     83.21094281	     -7.44433097	      2.71931952	     99.88561408	      1.74333284	     30.97426659	    -13.57904028	     -7.50046370	    -25.75406713	      5.59317425	    -30.73373642	     51.23758118	     17.07580686	     25.27211610	     94.50731142	    103.33517924	    179.91006456	   -145.59455091	    148.23202684	    146.79105508	    106.70815437
